<svg xmlns="http://www.w3.org/2000/svg" xmlns:xlink="http://www.w3.org/1999/xlink" id="Layer_1" x="0" y="0" version="1.1" viewBox="0 0 595.28 595.28" xml:space="preserve" style="enable-background:new 0 0 595.28 595.28"><style type="text/css">.st0{fill:#4e937a}.st1{fill:#0c1714}</style><g><path d="M297.93,594.53c-0.36-133.62-105.36-197.62-163.34-290.39C54.79,176.55,139.45,7.1,289.83,1.12 c2.67-0.09,5.34-0.18,8.06-0.18h0.09h0.09c2.67,0,5.39,0.05,8.06,0.18C456.51,7.1,541.17,176.5,461.36,304.14 c-57.98,92.77-162.97,156.77-163.34,290.39H297.93z" class="st0"/><path d="M264.05,194.48c1.54,6.66-5.75,11.73-11.46,8.15l-19.39-12.09l-24.19,38.73c-6.34,10.1,1,23.28,12.91,23.28 h24.73c3.17,0,5.71,2.54,5.71,5.71v19.02c0,3.17-2.54,5.71-5.71,5.71h-24.69c-35.83,0-57.71-39.5-38.73-69.85l24.19-38.73 l-19.39-12.09c-5.75-3.58-4.26-12.37,2.31-13.86l52.45-12.09c4.08-0.95,8.2,1.63,9.15,5.71L264.05,194.48L264.05,194.48z M310.93,107.47l19.66,31.44L311.21,151c-5.75,3.58-4.3,12.37,2.31,13.86l52.45,12.09c4.12,0.95,8.2-1.63,9.15-5.71l12.09-52.45 c1.54-6.57-5.71-11.78-11.46-8.15l-19.34,12.09L336.8,91.3c-17.85-28.54-59.56-28.63-77.46,0l-8.56,13.68 c-1.68,2.67-0.86,6.21,1.81,7.88l16.13,10.1c2.67,1.68,6.21,0.86,7.88-1.81l8.56-13.68C291.19,97.82,305.09,98.14,310.93,107.47 L310.93,107.47z M412.85,213.15l-13.09-20.97c-1.68-2.67-5.21-3.49-7.88-1.81l-16.13,10.06c-2.67,1.68-3.49,5.21-1.81,7.88 l13.09,20.97c6.3,10.1-1,23.28-12.91,23.28h-45.66v-22.83c0-6.75-8.2-10.19-13-5.39l-38.05,38.05c-2.99,2.99-2.99,7.79,0,10.78 l38.05,38.05c4.76,4.76,13,1.4,13-5.39v-22.83h45.61C409.91,282.99,431.83,243.54,412.85,213.15z" class="st1"/></g></svg>